solid Exported from Blender-3.6.2
facet normal 0.098017 -0.000000 -0.995185
outer loop
vertex 0.000000 -0.000000 -3.750000
vertex 0.000000 112.000000 -3.750005
vertex 0.731589 112.000000 -3.677949
endloop
endfacet
facet normal 0.098018 -0.000000 -0.995185
outer loop
vertex 0.000000 -0.000000 -3.750000
vertex 0.731589 112.000000 -3.677949
vertex 0.731589 -0.000000 -3.677944
endloop
endfacet
facet normal 0.290284 -0.000000 -0.956941
outer loop
vertex 0.731589 -0.000000 -3.677944
vertex 0.731589 112.000000 -3.677949
vertex 1.435063 112.000000 -3.464554
endloop
endfacet
facet normal 0.290284 -0.000000 -0.956941
outer loop
vertex 0.731589 -0.000000 -3.677944
vertex 1.435063 112.000000 -3.464554
vertex 1.435063 -0.000000 -3.464549
endloop
endfacet
facet normal 0.471398 -0.000000 -0.881921
outer loop
vertex 1.435063 -0.000000 -3.464549
vertex 1.435063 112.000000 -3.464554
vertex 2.083388 112.000000 -3.118016
endloop
endfacet
facet normal 0.471397 -0.000000 -0.881921
outer loop
vertex 1.435063 -0.000000 -3.464549
vertex 2.083388 112.000000 -3.118016
vertex 2.083388 -0.000000 -3.118011
endloop
endfacet
facet normal 0.634393 -0.000000 -0.773011
outer loop
vertex 2.083388 -0.000000 -3.118011
vertex 2.083388 112.000000 -3.118016
vertex 2.651650 112.000000 -2.651655
endloop
endfacet
facet normal 0.634394 -0.000000 -0.773010
outer loop
vertex 2.083388 -0.000000 -3.118011
vertex 2.651650 112.000000 -2.651655
vertex 2.651650 -0.000000 -2.651650
endloop
endfacet
facet normal 0.773010 -0.000000 -0.634393
outer loop
vertex 2.651650 -0.000000 -2.651650
vertex 2.651650 112.000000 -2.651655
vertex 3.118011 112.000000 -2.083393
endloop
endfacet
facet normal 0.773011 -0.000000 -0.634393
outer loop
vertex 2.651650 -0.000000 -2.651650
vertex 3.118011 112.000000 -2.083393
vertex 3.118011 -0.000000 -2.083388
endloop
endfacet
facet normal 0.881921 -0.000000 -0.471397
outer loop
vertex 3.118011 -0.000000 -2.083388
vertex 3.118011 112.000000 -2.083393
vertex 3.464549 112.000000 -1.435068
endloop
endfacet
facet normal 0.881921 -0.000000 -0.471397
outer loop
vertex 3.118011 -0.000000 -2.083388
vertex 3.464549 112.000000 -1.435068
vertex 3.464549 -0.000000 -1.435063
endloop
endfacet
facet normal 0.956941 -0.000000 -0.290284
outer loop
vertex 3.464549 -0.000000 -1.435063
vertex 3.464549 112.000000 -1.435068
vertex 3.677944 112.000000 -0.731594
endloop
endfacet
facet normal 0.956941 -0.000000 -0.290284
outer loop
vertex 3.464549 -0.000000 -1.435063
vertex 3.677944 112.000000 -0.731594
vertex 3.677944 -0.000000 -0.731589
endloop
endfacet
facet normal 0.995185 -0.000000 -0.098018
outer loop
vertex 3.677944 -0.000000 -0.731589
vertex 3.677944 112.000000 -0.731594
vertex 3.750000 112.000000 -0.000005
endloop
endfacet
facet normal 0.995185 -0.000000 -0.098018
outer loop
vertex 3.677944 -0.000000 -0.731589
vertex 3.750000 112.000000 -0.000005
vertex 3.750000 0.000000 0.000000
endloop
endfacet
facet normal 0.995185 0.000000 0.098018
outer loop
vertex 3.750000 0.000000 0.000000
vertex 3.750000 112.000000 -0.000005
vertex 3.677944 112.000000 0.731584
endloop
endfacet
facet normal 0.995185 0.000000 0.098018
outer loop
vertex 3.750000 0.000000 0.000000
vertex 3.677944 112.000000 0.731584
vertex 3.677944 0.000000 0.731589
endloop
endfacet
facet normal 0.956941 0.000000 0.290284
outer loop
vertex 3.677944 0.000000 0.731589
vertex 3.677944 112.000000 0.731584
vertex 3.464549 112.000000 1.435058
endloop
endfacet
facet normal 0.956941 0.000000 0.290284
outer loop
vertex 3.677944 0.000000 0.731589
vertex 3.464549 112.000000 1.435058
vertex 3.464549 0.000000 1.435063
endloop
endfacet
facet normal 0.881921 0.000000 0.471397
outer loop
vertex 3.464549 0.000000 1.435063
vertex 3.464549 112.000000 1.435058
vertex 3.118011 112.000000 2.083383
endloop
endfacet
facet normal 0.881921 0.000000 0.471397
outer loop
vertex 3.464549 0.000000 1.435063
vertex 3.118011 112.000000 2.083383
vertex 3.118011 0.000000 2.083388
endloop
endfacet
facet normal 0.773010 0.000000 0.634393
outer loop
vertex 3.118011 0.000000 2.083388
vertex 3.118011 112.000000 2.083383
vertex 2.651650 112.000000 2.651645
endloop
endfacet
facet normal 0.773011 0.000000 0.634393
outer loop
vertex 3.118011 0.000000 2.083388
vertex 2.651650 112.000000 2.651645
vertex 2.651650 0.000000 2.651650
endloop
endfacet
facet normal 0.634393 0.000000 0.773011
outer loop
vertex 2.651650 0.000000 2.651650
vertex 2.651650 112.000000 2.651645
vertex 2.083388 112.000000 3.118006
endloop
endfacet
facet normal 0.634394 0.000000 0.773010
outer loop
vertex 2.651650 0.000000 2.651650
vertex 2.083388 112.000000 3.118006
vertex 2.083388 0.000000 3.118011
endloop
endfacet
facet normal 0.471397 0.000000 0.881921
outer loop
vertex 2.083388 0.000000 3.118011
vertex 2.083388 112.000000 3.118006
vertex 1.435063 112.000000 3.464544
endloop
endfacet
facet normal 0.471397 0.000000 0.881921
outer loop
vertex 2.083388 0.000000 3.118011
vertex 1.435063 112.000000 3.464544
vertex 1.435063 0.000000 3.464549
endloop
endfacet
facet normal 0.290284 0.000000 0.956941
outer loop
vertex 1.435063 0.000000 3.464549
vertex 1.435063 112.000000 3.464544
vertex 0.731589 112.000000 3.677939
endloop
endfacet
facet normal 0.290283 0.000000 0.956941
outer loop
vertex 1.435063 0.000000 3.464549
vertex 0.731589 112.000000 3.677939
vertex 0.731589 0.000000 3.677944
endloop
endfacet
facet normal 0.098018 0.000000 0.995185
outer loop
vertex 0.731589 0.000000 3.677944
vertex 0.731589 112.000000 3.677939
vertex 0.000000 112.000000 3.749995
endloop
endfacet
facet normal 0.098018 0.000000 0.995185
outer loop
vertex 0.731589 0.000000 3.677944
vertex 0.000000 112.000000 3.749995
vertex 0.000000 0.000000 3.750000
endloop
endfacet
facet normal -0.098018 0.000000 0.995185
outer loop
vertex 0.000000 0.000000 3.750000
vertex 0.000000 112.000000 3.749995
vertex -0.731589 112.000000 3.677939
endloop
endfacet
facet normal -0.098018 0.000000 0.995185
outer loop
vertex 0.000000 0.000000 3.750000
vertex -0.731589 112.000000 3.677939
vertex -0.731589 0.000000 3.677944
endloop
endfacet
facet normal -0.290283 0.000000 0.956941
outer loop
vertex -0.731589 0.000000 3.677944
vertex -0.731589 112.000000 3.677939
vertex -1.435063 112.000000 3.464544
endloop
endfacet
facet normal -0.290284 0.000000 0.956941
outer loop
vertex -0.731589 0.000000 3.677944
vertex -1.435063 112.000000 3.464544
vertex -1.435063 0.000000 3.464549
endloop
endfacet
facet normal -0.471397 0.000000 0.881921
outer loop
vertex -1.435063 0.000000 3.464549
vertex -1.435063 112.000000 3.464544
vertex -2.083388 112.000000 3.118006
endloop
endfacet
facet normal -0.471397 0.000000 0.881921
outer loop
vertex -1.435063 0.000000 3.464549
vertex -2.083388 112.000000 3.118006
vertex -2.083388 0.000000 3.118011
endloop
endfacet
facet normal -0.634394 0.000000 0.773010
outer loop
vertex -2.083388 0.000000 3.118011
vertex -2.083388 112.000000 3.118006
vertex -2.651650 112.000000 2.651645
endloop
endfacet
facet normal -0.634393 0.000000 0.773011
outer loop
vertex -2.083388 0.000000 3.118011
vertex -2.651650 112.000000 2.651645
vertex -2.651650 0.000000 2.651650
endloop
endfacet
facet normal -0.773011 0.000000 0.634393
outer loop
vertex -2.651650 0.000000 2.651650
vertex -2.651650 112.000000 2.651645
vertex -3.118011 112.000000 2.083383
endloop
endfacet
facet normal -0.773010 0.000000 0.634393
outer loop
vertex -2.651650 0.000000 2.651650
vertex -3.118011 112.000000 2.083383
vertex -3.118011 0.000000 2.083388
endloop
endfacet
facet normal -0.881921 0.000000 0.471397
outer loop
vertex -3.118011 0.000000 2.083388
vertex -3.118011 112.000000 2.083383
vertex -3.464549 112.000000 1.435058
endloop
endfacet
facet normal -0.881921 0.000000 0.471397
outer loop
vertex -3.118011 0.000000 2.083388
vertex -3.464549 112.000000 1.435058
vertex -3.464549 0.000000 1.435063
endloop
endfacet
facet normal -0.956941 0.000000 0.290284
outer loop
vertex -3.464549 0.000000 1.435063
vertex -3.464549 112.000000 1.435058
vertex -3.677944 112.000000 0.731584
endloop
endfacet
facet normal -0.956941 0.000000 0.290284
outer loop
vertex -3.464549 0.000000 1.435063
vertex -3.677944 112.000000 0.731584
vertex -3.677944 0.000000 0.731589
endloop
endfacet
facet normal -0.995185 0.000000 0.098018
outer loop
vertex -3.677944 0.000000 0.731589
vertex -3.677944 112.000000 0.731584
vertex -3.750000 112.000000 -0.000005
endloop
endfacet
facet normal -0.995185 0.000000 0.098018
outer loop
vertex -3.677944 0.000000 0.731589
vertex -3.750000 112.000000 -0.000005
vertex -3.750000 0.000000 0.000000
endloop
endfacet
facet normal -0.995185 0.000000 -0.098018
outer loop
vertex -3.750000 0.000000 0.000000
vertex -3.750000 112.000000 -0.000005
vertex -3.677944 112.000000 -0.731594
endloop
endfacet
facet normal -0.995185 -0.000000 -0.098018
outer loop
vertex -3.750000 0.000000 0.000000
vertex -3.677944 112.000000 -0.731594
vertex -3.677944 -0.000000 -0.731589
endloop
endfacet
facet normal -0.956941 -0.000000 -0.290284
outer loop
vertex -3.677944 -0.000000 -0.731589
vertex -3.677944 112.000000 -0.731594
vertex -3.464549 112.000000 -1.435068
endloop
endfacet
facet normal -0.956941 -0.000000 -0.290284
outer loop
vertex -3.677944 -0.000000 -0.731589
vertex -3.464549 112.000000 -1.435068
vertex -3.464549 -0.000000 -1.435063
endloop
endfacet
facet normal -0.881921 -0.000000 -0.471397
outer loop
vertex -3.464549 -0.000000 -1.435063
vertex -3.464549 112.000000 -1.435068
vertex -3.118011 112.000000 -2.083393
endloop
endfacet
facet normal -0.881921 -0.000000 -0.471397
outer loop
vertex -3.464549 -0.000000 -1.435063
vertex -3.118011 112.000000 -2.083393
vertex -3.118011 -0.000000 -2.083388
endloop
endfacet
facet normal -0.773011 -0.000000 -0.634393
outer loop
vertex -3.118011 -0.000000 -2.083388
vertex -3.118011 112.000000 -2.083393
vertex -2.651650 112.000000 -2.651655
endloop
endfacet
facet normal -0.773010 -0.000000 -0.634393
outer loop
vertex -3.118011 -0.000000 -2.083388
vertex -2.651650 112.000000 -2.651655
vertex -2.651650 -0.000000 -2.651650
endloop
endfacet
facet normal -0.634394 -0.000000 -0.773010
outer loop
vertex -2.651650 -0.000000 -2.651650
vertex -2.651650 112.000000 -2.651655
vertex -2.083388 112.000000 -3.118016
endloop
endfacet
facet normal -0.634393 -0.000000 -0.773011
outer loop
vertex -2.651650 -0.000000 -2.651650
vertex -2.083388 112.000000 -3.118016
vertex -2.083388 -0.000000 -3.118011
endloop
endfacet
facet normal -0.471397 -0.000000 -0.881921
outer loop
vertex -2.083388 -0.000000 -3.118011
vertex -2.083388 112.000000 -3.118016
vertex -1.435063 112.000000 -3.464554
endloop
endfacet
facet normal -0.471398 -0.000000 -0.881921
outer loop
vertex -2.083388 -0.000000 -3.118011
vertex -1.435063 112.000000 -3.464554
vertex -1.435063 -0.000000 -3.464549
endloop
endfacet
facet normal 0.000000 1.000000 0.000000
outer loop
vertex 1.435063 112.000000 -3.464554
vertex 0.731589 112.000000 -3.677949
vertex 0.000000 112.000000 -3.750005
endloop
endfacet
facet normal 0.000000 1.000000 0.000000
outer loop
vertex 0.000000 112.000000 -3.750005
vertex -0.731589 112.000000 -3.677949
vertex -1.435063 112.000000 -3.464554
endloop
endfacet
facet normal 0.000000 1.000000 0.000145
outer loop
vertex -1.435063 112.000000 -3.464554
vertex -2.083388 112.000000 -3.118016
vertex -2.651650 112.000000 -2.651655
endloop
endfacet
facet normal 0.000000 1.000000 0.000000
outer loop
vertex -2.651650 112.000000 -2.651655
vertex -3.118011 112.000000 -2.083393
vertex -3.464549 112.000000 -1.435068
endloop
endfacet
facet normal 0.000000 1.000000 0.000000
outer loop
vertex -3.464549 112.000000 -1.435068
vertex -3.677944 112.000000 -0.731594
vertex -3.750000 112.000000 -0.000005
endloop
endfacet
facet normal 0.000000 1.000000 0.000000
outer loop
vertex -3.750000 112.000000 -0.000005
vertex -3.677944 112.000000 0.731584
vertex -3.464549 112.000000 1.435058
endloop
endfacet
facet normal 0.000000 1.000000 0.000000
outer loop
vertex -3.464549 112.000000 1.435058
vertex -3.118011 112.000000 2.083383
vertex -2.651650 112.000000 2.651645
endloop
endfacet
facet normal 0.000000 1.000000 -0.000145
outer loop
vertex -2.651650 112.000000 2.651645
vertex -2.083388 112.000000 3.118006
vertex -1.435063 112.000000 3.464544
endloop
endfacet
facet normal 0.000000 1.000000 0.000000
outer loop
vertex -1.435063 112.000000 3.464544
vertex -0.731589 112.000000 3.677939
vertex 0.000000 112.000000 3.749995
endloop
endfacet
facet normal 0.000000 1.000000 0.000000
outer loop
vertex 0.000000 112.000000 3.749995
vertex 0.731589 112.000000 3.677939
vertex 1.435063 112.000000 3.464544
endloop
endfacet
facet normal 0.000000 1.000000 -0.000145
outer loop
vertex 1.435063 112.000000 3.464544
vertex 2.083388 112.000000 3.118006
vertex 2.651650 112.000000 2.651645
endloop
endfacet
facet normal 0.000000 1.000000 0.000000
outer loop
vertex 2.651650 112.000000 2.651645
vertex 3.118011 112.000000 2.083383
vertex 3.464549 112.000000 1.435058
endloop
endfacet
facet normal 0.000000 1.000000 0.000000
outer loop
vertex 3.464549 112.000000 1.435058
vertex 3.677944 112.000000 0.731584
vertex 3.750000 112.000000 -0.000005
endloop
endfacet
facet normal 0.000000 1.000000 0.000000
outer loop
vertex 3.750000 112.000000 -0.000005
vertex 3.677944 112.000000 -0.731594
vertex 3.464549 112.000000 -1.435068
endloop
endfacet
facet normal 0.000000 1.000000 0.000000
outer loop
vertex 3.464549 112.000000 -1.435068
vertex 3.118011 112.000000 -2.083393
vertex 2.651650 112.000000 -2.651655
endloop
endfacet
facet normal 0.000000 1.000000 0.000145
outer loop
vertex 2.651650 112.000000 -2.651655
vertex 2.083388 112.000000 -3.118016
vertex 1.435063 112.000000 -3.464554
endloop
endfacet
facet normal 0.000000 1.000000 0.000000
outer loop
vertex 1.435063 112.000000 -3.464554
vertex 0.000000 112.000000 -3.750005
vertex -1.435063 112.000000 -3.464554
endloop
endfacet
facet normal 0.000000 1.000000 0.000019
outer loop
vertex -1.435063 112.000000 -3.464554
vertex -2.651650 112.000000 -2.651655
vertex -3.464549 112.000000 -1.435068
endloop
endfacet
facet normal 0.000000 1.000000 0.000000
outer loop
vertex -3.464549 112.000000 -1.435068
vertex -3.750000 112.000000 -0.000005
vertex -3.464549 112.000000 1.435058
endloop
endfacet
facet normal 0.000000 1.000000 0.000000
outer loop
vertex -3.464549 112.000000 1.435058
vertex -2.651650 112.000000 2.651645
vertex -1.435063 112.000000 3.464544
endloop
endfacet
facet normal 0.000000 1.000000 0.000000
outer loop
vertex -1.435063 112.000000 3.464544
vertex 0.000000 112.000000 3.749995
vertex 1.435063 112.000000 3.464544
endloop
endfacet
facet normal 0.000000 1.000000 -0.000019
outer loop
vertex 1.435063 112.000000 3.464544
vertex 2.651650 112.000000 2.651645
vertex 3.464549 112.000000 1.435058
endloop
endfacet
facet normal 0.000000 1.000000 0.000000
outer loop
vertex 3.464549 112.000000 1.435058
vertex 3.750000 112.000000 -0.000005
vertex 3.464549 112.000000 -1.435068
endloop
endfacet
facet normal 0.000000 1.000000 0.000000
outer loop
vertex 3.464549 112.000000 -1.435068
vertex 2.651650 112.000000 -2.651655
vertex 1.435063 112.000000 -3.464554
endloop
endfacet
facet normal 0.000000 1.000000 0.000000
outer loop
vertex 1.435063 112.000000 -3.464554
vertex -1.435063 112.000000 -3.464554
vertex -3.464549 112.000000 -1.435068
endloop
endfacet
facet normal 0.000000 1.000000 0.000000
outer loop
vertex -3.464549 112.000000 -1.435068
vertex -3.464549 112.000000 1.435058
vertex -1.435063 112.000000 3.464544
endloop
endfacet
facet normal 0.000000 1.000000 0.000000
outer loop
vertex -1.435063 112.000000 3.464544
vertex 1.435063 112.000000 3.464544
vertex 3.464549 112.000000 1.435058
endloop
endfacet
facet normal 0.000000 1.000000 0.000000
outer loop
vertex 3.464549 112.000000 1.435058
vertex 3.464549 112.000000 -1.435068
vertex 1.435063 112.000000 -3.464554
endloop
endfacet
facet normal 0.000000 1.000000 0.000000
outer loop
vertex 1.435063 112.000000 -3.464554
vertex -3.464549 112.000000 -1.435068
vertex -1.435063 112.000000 3.464544
endloop
endfacet
facet normal 0.000000 1.000000 0.000000
outer loop
vertex -1.435063 112.000000 3.464544
vertex 3.464549 112.000000 1.435058
vertex 1.435063 112.000000 -3.464554
endloop
endfacet
facet normal -0.290284 -0.000000 -0.956941
outer loop
vertex -1.435063 -0.000000 -3.464549
vertex -1.435063 112.000000 -3.464554
vertex -0.731589 112.000000 -3.677949
endloop
endfacet
facet normal -0.290284 -0.000000 -0.956941
outer loop
vertex -1.435063 -0.000000 -3.464549
vertex -0.731589 112.000000 -3.677949
vertex -0.731589 -0.000000 -3.677944
endloop
endfacet
facet normal -0.098018 -0.000000 -0.995185
outer loop
vertex -0.731589 -0.000000 -3.677944
vertex -0.731589 112.000000 -3.677949
vertex 0.000000 112.000000 -3.750005
endloop
endfacet
facet normal -0.098017 -0.000000 -0.995185
outer loop
vertex -0.731589 -0.000000 -3.677944
vertex 0.000000 112.000000 -3.750005
vertex 0.000000 -0.000000 -3.750000
endloop
endfacet
facet normal 0.000000 -1.000000 0.000000
outer loop
vertex -0.731589 -0.000000 -3.677944
vertex 0.000000 -0.000000 -3.750000
vertex 0.731589 -0.000000 -3.677944
endloop
endfacet
facet normal 0.000000 -1.000000 0.000000
outer loop
vertex 0.731589 -0.000000 -3.677944
vertex 1.435063 -0.000000 -3.464549
vertex 2.083388 -0.000000 -3.118011
endloop
endfacet
facet normal 0.000000 -1.000000 0.000000
outer loop
vertex 2.083388 -0.000000 -3.118011
vertex 2.651650 -0.000000 -2.651650
vertex 3.118011 -0.000000 -2.083388
endloop
endfacet
facet normal 0.000000 -1.000000 0.000000
outer loop
vertex 3.118011 -0.000000 -2.083388
vertex 3.464549 -0.000000 -1.435063
vertex 3.677944 -0.000000 -0.731589
endloop
endfacet
facet normal 0.000000 -1.000000 0.000000
outer loop
vertex 3.677944 -0.000000 -0.731589
vertex 3.750000 0.000000 0.000000
vertex 3.677944 0.000000 0.731589
endloop
endfacet
facet normal 0.000000 -1.000000 0.000000
outer loop
vertex 3.677944 0.000000 0.731589
vertex 3.464549 0.000000 1.435063
vertex 3.118011 0.000000 2.083388
endloop
endfacet
facet normal 0.000000 -1.000000 0.000000
outer loop
vertex 3.118011 0.000000 2.083388
vertex 2.651650 0.000000 2.651650
vertex 2.083388 0.000000 3.118011
endloop
endfacet
facet normal 0.000000 -1.000000 0.000000
outer loop
vertex 2.083388 0.000000 3.118011
vertex 1.435063 0.000000 3.464549
vertex 0.731589 0.000000 3.677944
endloop
endfacet
facet normal 0.000000 -1.000000 0.000000
outer loop
vertex 0.731589 0.000000 3.677944
vertex 0.000000 0.000000 3.750000
vertex -0.731589 0.000000 3.677944
endloop
endfacet
facet normal 0.000000 -1.000000 0.000000
outer loop
vertex -0.731589 0.000000 3.677944
vertex -1.435063 0.000000 3.464549
vertex -2.083388 0.000000 3.118011
endloop
endfacet
facet normal 0.000000 -1.000000 0.000000
outer loop
vertex -2.083388 0.000000 3.118011
vertex -2.651650 0.000000 2.651650
vertex -3.118011 0.000000 2.083388
endloop
endfacet
facet normal 0.000000 -1.000000 0.000000
outer loop
vertex -3.118011 0.000000 2.083388
vertex -3.464549 0.000000 1.435063
vertex -3.677944 0.000000 0.731589
endloop
endfacet
facet normal 0.000000 -1.000000 0.000000
outer loop
vertex -3.677944 0.000000 0.731589
vertex -3.750000 0.000000 0.000000
vertex -3.677944 -0.000000 -0.731589
endloop
endfacet
facet normal 0.000000 -1.000000 0.000000
outer loop
vertex -3.677944 -0.000000 -0.731589
vertex -3.464549 -0.000000 -1.435063
vertex -3.118011 -0.000000 -2.083388
endloop
endfacet
facet normal 0.000000 -1.000000 0.000000
outer loop
vertex -3.118011 -0.000000 -2.083388
vertex -2.651650 -0.000000 -2.651650
vertex -2.083388 -0.000000 -3.118011
endloop
endfacet
facet normal 0.000000 -1.000000 0.000000
outer loop
vertex -2.083388 -0.000000 -3.118011
vertex -1.435063 -0.000000 -3.464549
vertex -0.731589 -0.000000 -3.677944
endloop
endfacet
facet normal 0.000000 -1.000000 0.000000
outer loop
vertex -0.731589 -0.000000 -3.677944
vertex 0.731589 -0.000000 -3.677944
vertex 2.083388 -0.000000 -3.118011
endloop
endfacet
facet normal 0.000000 -1.000000 0.000000
outer loop
vertex 2.083388 -0.000000 -3.118011
vertex 3.118011 -0.000000 -2.083388
vertex 3.677944 -0.000000 -0.731589
endloop
endfacet
facet normal -0.000000 -1.000000 0.000000
outer loop
vertex 3.677944 -0.000000 -0.731589
vertex 3.677944 0.000000 0.731589
vertex 3.118011 0.000000 2.083388
endloop
endfacet
facet normal -0.000000 -1.000000 0.000000
outer loop
vertex 3.118011 0.000000 2.083388
vertex 2.083388 0.000000 3.118011
vertex 0.731589 0.000000 3.677944
endloop
endfacet
facet normal 0.000000 -1.000000 0.000000
outer loop
vertex 0.731589 0.000000 3.677944
vertex -0.731589 0.000000 3.677944
vertex -2.083388 0.000000 3.118011
endloop
endfacet
facet normal 0.000000 -1.000000 0.000000
outer loop
vertex -2.083388 0.000000 3.118011
vertex -3.118011 0.000000 2.083388
vertex -3.677944 0.000000 0.731589
endloop
endfacet
facet normal -0.000000 -1.000000 0.000000
outer loop
vertex -3.677944 0.000000 0.731589
vertex -3.677944 -0.000000 -0.731589
vertex -3.118011 -0.000000 -2.083388
endloop
endfacet
facet normal -0.000000 -1.000000 0.000000
outer loop
vertex -3.118011 -0.000000 -2.083388
vertex -2.083388 -0.000000 -3.118011
vertex -0.731589 -0.000000 -3.677944
endloop
endfacet
facet normal 0.000000 -1.000000 0.000000
outer loop
vertex -0.731589 -0.000000 -3.677944
vertex 2.083388 -0.000000 -3.118011
vertex 3.677944 -0.000000 -0.731589
endloop
endfacet
facet normal 0.000000 -1.000000 0.000000
outer loop
vertex 3.677944 -0.000000 -0.731589
vertex 3.118011 0.000000 2.083388
vertex 0.731589 0.000000 3.677944
endloop
endfacet
facet normal 0.000000 -1.000000 0.000000
outer loop
vertex 0.731589 0.000000 3.677944
vertex -2.083388 0.000000 3.118011
vertex -3.677944 0.000000 0.731589
endloop
endfacet
facet normal 0.000000 -1.000000 0.000000
outer loop
vertex -3.677944 0.000000 0.731589
vertex -3.118011 -0.000000 -2.083388
vertex -0.731589 -0.000000 -3.677944
endloop
endfacet
facet normal 0.000000 -1.000000 0.000000
outer loop
vertex -0.731589 -0.000000 -3.677944
vertex 3.677944 -0.000000 -0.731589
vertex 0.731589 0.000000 3.677944
endloop
endfacet
facet normal 0.000000 -1.000000 0.000000
outer loop
vertex 0.731589 0.000000 3.677944
vertex -3.677944 0.000000 0.731589
vertex -0.731589 -0.000000 -3.677944
endloop
endfacet
endsolid Exported from Blender-3.6.2
