solid Exported from Blender-3.6.2
facet normal 0.098018 -0.000000 -0.995185
outer loop
vertex 0.000000 -0.000000 -2.500000
vertex 0.000000 96.000000 -2.500004
vertex 0.487726 96.000000 -2.451967
endloop
endfacet
facet normal 0.098018 -0.000000 -0.995185
outer loop
vertex 0.000000 -0.000000 -2.500000
vertex 0.487726 96.000000 -2.451967
vertex 0.487726 -0.000000 -2.451963
endloop
endfacet
facet normal 0.290284 -0.000000 -0.956941
outer loop
vertex 0.487726 -0.000000 -2.451963
vertex 0.487726 96.000000 -2.451967
vertex 0.956708 96.000000 -2.309703
endloop
endfacet
facet normal 0.290284 -0.000000 -0.956941
outer loop
vertex 0.487726 -0.000000 -2.451963
vertex 0.956708 96.000000 -2.309703
vertex 0.956708 -0.000000 -2.309699
endloop
endfacet
facet normal 0.471398 -0.000000 -0.881921
outer loop
vertex 0.956708 -0.000000 -2.309699
vertex 0.956708 96.000000 -2.309703
vertex 1.388926 96.000000 -2.078678
endloop
endfacet
facet normal 0.471397 -0.000000 -0.881921
outer loop
vertex 0.956708 -0.000000 -2.309699
vertex 1.388926 96.000000 -2.078678
vertex 1.388926 -0.000000 -2.078674
endloop
endfacet
facet normal 0.634394 -0.000000 -0.773010
outer loop
vertex 1.388926 -0.000000 -2.078674
vertex 1.388926 96.000000 -2.078678
vertex 1.767767 96.000000 -1.767771
endloop
endfacet
facet normal 0.634393 -0.000000 -0.773011
outer loop
vertex 1.388926 -0.000000 -2.078674
vertex 1.767767 96.000000 -1.767771
vertex 1.767767 -0.000000 -1.767767
endloop
endfacet
facet normal 0.773010 -0.000000 -0.634393
outer loop
vertex 1.767767 -0.000000 -1.767767
vertex 1.767767 96.000000 -1.767771
vertex 2.078674 96.000000 -1.388930
endloop
endfacet
facet normal 0.773010 -0.000000 -0.634393
outer loop
vertex 1.767767 -0.000000 -1.767767
vertex 2.078674 96.000000 -1.388930
vertex 2.078674 -0.000000 -1.388926
endloop
endfacet
facet normal 0.881921 -0.000000 -0.471397
outer loop
vertex 2.078674 -0.000000 -1.388926
vertex 2.078674 96.000000 -1.388930
vertex 2.309699 96.000000 -0.956713
endloop
endfacet
facet normal 0.881921 -0.000000 -0.471397
outer loop
vertex 2.078674 -0.000000 -1.388926
vertex 2.309699 96.000000 -0.956713
vertex 2.309699 -0.000000 -0.956708
endloop
endfacet
facet normal 0.956940 -0.000000 -0.290284
outer loop
vertex 2.309699 -0.000000 -0.956708
vertex 2.309699 96.000000 -0.956713
vertex 2.451963 96.000000 -0.487730
endloop
endfacet
facet normal 0.956941 -0.000000 -0.290284
outer loop
vertex 2.309699 -0.000000 -0.956708
vertex 2.451963 96.000000 -0.487730
vertex 2.451963 -0.000000 -0.487726
endloop
endfacet
facet normal 0.995185 -0.000000 -0.098018
outer loop
vertex 2.451963 -0.000000 -0.487726
vertex 2.451963 96.000000 -0.487730
vertex 2.500000 96.000000 -0.000004
endloop
endfacet
facet normal 0.995185 -0.000000 -0.098018
outer loop
vertex 2.451963 -0.000000 -0.487726
vertex 2.500000 96.000000 -0.000004
vertex 2.500000 0.000000 0.000000
endloop
endfacet
facet normal 0.995185 0.000000 0.098018
outer loop
vertex 2.500000 0.000000 0.000000
vertex 2.500000 96.000000 -0.000004
vertex 2.451963 96.000000 0.487722
endloop
endfacet
facet normal 0.995185 0.000000 0.098018
outer loop
vertex 2.500000 0.000000 0.000000
vertex 2.451963 96.000000 0.487722
vertex 2.451963 0.000000 0.487726
endloop
endfacet
facet normal 0.956940 0.000000 0.290284
outer loop
vertex 2.451963 0.000000 0.487726
vertex 2.451963 96.000000 0.487722
vertex 2.309699 96.000000 0.956704
endloop
endfacet
facet normal 0.956941 0.000000 0.290284
outer loop
vertex 2.451963 0.000000 0.487726
vertex 2.309699 96.000000 0.956704
vertex 2.309699 0.000000 0.956708
endloop
endfacet
facet normal 0.881921 0.000000 0.471397
outer loop
vertex 2.309699 0.000000 0.956708
vertex 2.309699 96.000000 0.956704
vertex 2.078674 96.000000 1.388921
endloop
endfacet
facet normal 0.881921 0.000000 0.471397
outer loop
vertex 2.309699 0.000000 0.956708
vertex 2.078674 96.000000 1.388921
vertex 2.078674 0.000000 1.388926
endloop
endfacet
facet normal 0.773010 0.000000 0.634393
outer loop
vertex 2.078674 0.000000 1.388926
vertex 2.078674 96.000000 1.388921
vertex 1.767767 96.000000 1.767763
endloop
endfacet
facet normal 0.773010 0.000000 0.634393
outer loop
vertex 2.078674 0.000000 1.388926
vertex 1.767767 96.000000 1.767763
vertex 1.767767 0.000000 1.767767
endloop
endfacet
facet normal 0.634394 0.000000 0.773010
outer loop
vertex 1.767767 0.000000 1.767767
vertex 1.767767 96.000000 1.767763
vertex 1.388926 96.000000 2.078670
endloop
endfacet
facet normal 0.634393 0.000000 0.773011
outer loop
vertex 1.767767 0.000000 1.767767
vertex 1.388926 96.000000 2.078670
vertex 1.388926 0.000000 2.078674
endloop
endfacet
facet normal 0.471397 0.000000 0.881921
outer loop
vertex 1.388926 0.000000 2.078674
vertex 1.388926 96.000000 2.078670
vertex 0.956708 96.000000 2.309695
endloop
endfacet
facet normal 0.471397 0.000000 0.881921
outer loop
vertex 1.388926 0.000000 2.078674
vertex 0.956708 96.000000 2.309695
vertex 0.956708 0.000000 2.309699
endloop
endfacet
facet normal 0.290284 0.000000 0.956940
outer loop
vertex 0.956708 0.000000 2.309699
vertex 0.956708 96.000000 2.309695
vertex 0.487726 96.000000 2.451959
endloop
endfacet
facet normal 0.290284 0.000000 0.956940
outer loop
vertex 0.956708 0.000000 2.309699
vertex 0.487726 96.000000 2.451959
vertex 0.487726 0.000000 2.451963
endloop
endfacet
facet normal 0.098017 0.000000 0.995185
outer loop
vertex 0.487726 0.000000 2.451963
vertex 0.487726 96.000000 2.451959
vertex 0.000000 96.000000 2.499996
endloop
endfacet
facet normal 0.098017 0.000000 0.995185
outer loop
vertex 0.487726 0.000000 2.451963
vertex 0.000000 96.000000 2.499996
vertex 0.000000 0.000000 2.500000
endloop
endfacet
facet normal -0.098017 0.000000 0.995185
outer loop
vertex 0.000000 0.000000 2.500000
vertex 0.000000 96.000000 2.499996
vertex -0.487726 96.000000 2.451959
endloop
endfacet
facet normal -0.098017 0.000000 0.995185
outer loop
vertex 0.000000 0.000000 2.500000
vertex -0.487726 96.000000 2.451959
vertex -0.487726 0.000000 2.451963
endloop
endfacet
facet normal -0.290284 0.000000 0.956940
outer loop
vertex -0.487726 0.000000 2.451963
vertex -0.487726 96.000000 2.451959
vertex -0.956708 96.000000 2.309695
endloop
endfacet
facet normal -0.290284 0.000000 0.956940
outer loop
vertex -0.487726 0.000000 2.451963
vertex -0.956708 96.000000 2.309695
vertex -0.956708 0.000000 2.309699
endloop
endfacet
facet normal -0.471397 0.000000 0.881921
outer loop
vertex -0.956708 0.000000 2.309699
vertex -0.956708 96.000000 2.309695
vertex -1.388926 96.000000 2.078670
endloop
endfacet
facet normal -0.471397 0.000000 0.881921
outer loop
vertex -0.956708 0.000000 2.309699
vertex -1.388926 96.000000 2.078670
vertex -1.388926 0.000000 2.078674
endloop
endfacet
facet normal -0.634393 0.000000 0.773011
outer loop
vertex -1.388926 0.000000 2.078674
vertex -1.388926 96.000000 2.078670
vertex -1.767767 96.000000 1.767763
endloop
endfacet
facet normal -0.634394 0.000000 0.773010
outer loop
vertex -1.388926 0.000000 2.078674
vertex -1.767767 96.000000 1.767763
vertex -1.767767 0.000000 1.767767
endloop
endfacet
facet normal -0.773010 0.000000 0.634393
outer loop
vertex -1.767767 0.000000 1.767767
vertex -1.767767 96.000000 1.767763
vertex -2.078674 96.000000 1.388921
endloop
endfacet
facet normal -0.773010 0.000000 0.634393
outer loop
vertex -1.767767 0.000000 1.767767
vertex -2.078674 96.000000 1.388921
vertex -2.078674 0.000000 1.388926
endloop
endfacet
facet normal -0.881921 0.000000 0.471397
outer loop
vertex -2.078674 0.000000 1.388926
vertex -2.078674 96.000000 1.388921
vertex -2.309699 96.000000 0.956704
endloop
endfacet
facet normal -0.881921 0.000000 0.471397
outer loop
vertex -2.078674 0.000000 1.388926
vertex -2.309699 96.000000 0.956704
vertex -2.309699 0.000000 0.956708
endloop
endfacet
facet normal -0.956941 0.000000 0.290284
outer loop
vertex -2.309699 0.000000 0.956708
vertex -2.309699 96.000000 0.956704
vertex -2.451963 96.000000 0.487722
endloop
endfacet
facet normal -0.956940 0.000000 0.290284
outer loop
vertex -2.309699 0.000000 0.956708
vertex -2.451963 96.000000 0.487722
vertex -2.451963 0.000000 0.487726
endloop
endfacet
facet normal -0.995185 0.000000 0.098018
outer loop
vertex -2.451963 0.000000 0.487726
vertex -2.451963 96.000000 0.487722
vertex -2.500000 96.000000 -0.000004
endloop
endfacet
facet normal -0.995185 0.000000 0.098018
outer loop
vertex -2.451963 0.000000 0.487726
vertex -2.500000 96.000000 -0.000004
vertex -2.500000 0.000000 0.000000
endloop
endfacet
facet normal -0.995185 -0.000000 -0.098018
outer loop
vertex -2.500000 0.000000 0.000000
vertex -2.500000 96.000000 -0.000004
vertex -2.451963 96.000000 -0.487730
endloop
endfacet
facet normal -0.995185 -0.000000 -0.098018
outer loop
vertex -2.500000 0.000000 0.000000
vertex -2.451963 96.000000 -0.487730
vertex -2.451963 -0.000000 -0.487726
endloop
endfacet
facet normal -0.956941 -0.000000 -0.290284
outer loop
vertex -2.451963 -0.000000 -0.487726
vertex -2.451963 96.000000 -0.487730
vertex -2.309699 96.000000 -0.956713
endloop
endfacet
facet normal -0.956940 -0.000000 -0.290284
outer loop
vertex -2.451963 -0.000000 -0.487726
vertex -2.309699 96.000000 -0.956713
vertex -2.309699 -0.000000 -0.956708
endloop
endfacet
facet normal -0.881921 -0.000000 -0.471397
outer loop
vertex -2.309699 -0.000000 -0.956708
vertex -2.309699 96.000000 -0.956713
vertex -2.078674 96.000000 -1.388930
endloop
endfacet
facet normal -0.881921 -0.000000 -0.471397
outer loop
vertex -2.309699 -0.000000 -0.956708
vertex -2.078674 96.000000 -1.388930
vertex -2.078674 -0.000000 -1.388926
endloop
endfacet
facet normal -0.773010 -0.000000 -0.634393
outer loop
vertex -2.078674 -0.000000 -1.388926
vertex -2.078674 96.000000 -1.388930
vertex -1.767767 96.000000 -1.767771
endloop
endfacet
facet normal -0.773010 -0.000000 -0.634393
outer loop
vertex -2.078674 -0.000000 -1.388926
vertex -1.767767 96.000000 -1.767771
vertex -1.767767 -0.000000 -1.767767
endloop
endfacet
facet normal -0.634393 -0.000000 -0.773011
outer loop
vertex -1.767767 -0.000000 -1.767767
vertex -1.767767 96.000000 -1.767771
vertex -1.388926 96.000000 -2.078678
endloop
endfacet
facet normal -0.634393 -0.000000 -0.773011
outer loop
vertex -1.767767 -0.000000 -1.767767
vertex -1.388926 96.000000 -2.078678
vertex -1.388926 -0.000000 -2.078674
endloop
endfacet
facet normal -0.471397 -0.000000 -0.881921
outer loop
vertex -1.388926 -0.000000 -2.078674
vertex -1.388926 96.000000 -2.078678
vertex -0.956708 96.000000 -2.309703
endloop
endfacet
facet normal -0.471398 -0.000000 -0.881921
outer loop
vertex -1.388926 -0.000000 -2.078674
vertex -0.956708 96.000000 -2.309703
vertex -0.956708 -0.000000 -2.309699
endloop
endfacet
facet normal 0.000000 1.000000 0.000000
outer loop
vertex 0.956708 96.000000 -2.309703
vertex 0.487726 96.000000 -2.451967
vertex 0.000000 96.000000 -2.500004
endloop
endfacet
facet normal 0.000000 1.000000 0.000000
outer loop
vertex 0.000000 96.000000 -2.500004
vertex -0.487726 96.000000 -2.451967
vertex -0.956708 96.000000 -2.309703
endloop
endfacet
facet normal 0.000000 1.000000 0.000000
outer loop
vertex -0.956708 96.000000 -2.309703
vertex -1.388926 96.000000 -2.078678
vertex -1.767767 96.000000 -1.767771
endloop
endfacet
facet normal 0.000000 1.000000 0.000000
outer loop
vertex -1.767767 96.000000 -1.767771
vertex -2.078674 96.000000 -1.388930
vertex -2.309699 96.000000 -0.956713
endloop
endfacet
facet normal 0.000000 1.000000 0.000000
outer loop
vertex -2.309699 96.000000 -0.956713
vertex -2.451963 96.000000 -0.487730
vertex -2.500000 96.000000 -0.000004
endloop
endfacet
facet normal 0.000000 1.000000 0.000000
outer loop
vertex -2.500000 96.000000 -0.000004
vertex -2.451963 96.000000 0.487722
vertex -2.309699 96.000000 0.956704
endloop
endfacet
facet normal 0.000000 1.000000 0.000000
outer loop
vertex -2.309699 96.000000 0.956704
vertex -2.078674 96.000000 1.388921
vertex -1.767767 96.000000 1.767763
endloop
endfacet
facet normal 0.000000 1.000000 0.000000
outer loop
vertex -1.767767 96.000000 1.767763
vertex -1.388926 96.000000 2.078670
vertex -0.956708 96.000000 2.309695
endloop
endfacet
facet normal 0.000000 1.000000 0.000000
outer loop
vertex -0.956708 96.000000 2.309695
vertex -0.487726 96.000000 2.451959
vertex 0.000000 96.000000 2.499996
endloop
endfacet
facet normal 0.000000 1.000000 0.000000
outer loop
vertex 0.000000 96.000000 2.499996
vertex 0.487726 96.000000 2.451959
vertex 0.956708 96.000000 2.309695
endloop
endfacet
facet normal 0.000000 1.000000 0.000000
outer loop
vertex 0.956708 96.000000 2.309695
vertex 1.388926 96.000000 2.078670
vertex 1.767767 96.000000 1.767763
endloop
endfacet
facet normal 0.000000 1.000000 0.000000
outer loop
vertex 1.767767 96.000000 1.767763
vertex 2.078674 96.000000 1.388921
vertex 2.309699 96.000000 0.956704
endloop
endfacet
facet normal 0.000000 1.000000 0.000000
outer loop
vertex 2.309699 96.000000 0.956704
vertex 2.451963 96.000000 0.487722
vertex 2.500000 96.000000 -0.000004
endloop
endfacet
facet normal 0.000000 1.000000 0.000000
outer loop
vertex 2.500000 96.000000 -0.000004
vertex 2.451963 96.000000 -0.487730
vertex 2.309699 96.000000 -0.956713
endloop
endfacet
facet normal 0.000000 1.000000 0.000000
outer loop
vertex 2.309699 96.000000 -0.956713
vertex 2.078674 96.000000 -1.388930
vertex 1.767767 96.000000 -1.767771
endloop
endfacet
facet normal 0.000000 1.000000 0.000000
outer loop
vertex 1.767767 96.000000 -1.767771
vertex 1.388926 96.000000 -2.078678
vertex 0.956708 96.000000 -2.309703
endloop
endfacet
facet normal 0.000000 1.000000 0.000000
outer loop
vertex 0.956708 96.000000 -2.309703
vertex 0.000000 96.000000 -2.500004
vertex -0.956708 96.000000 -2.309703
endloop
endfacet
facet normal 0.000000 1.000000 -0.000042
outer loop
vertex -0.956708 96.000000 -2.309703
vertex -1.767767 96.000000 -1.767771
vertex -2.309699 96.000000 -0.956713
endloop
endfacet
facet normal 0.000000 1.000000 0.000000
outer loop
vertex -2.309699 96.000000 -0.956713
vertex -2.500000 96.000000 -0.000004
vertex -2.309699 96.000000 0.956704
endloop
endfacet
facet normal 0.000000 1.000000 0.000042
outer loop
vertex -2.309699 96.000000 0.956704
vertex -1.767767 96.000000 1.767763
vertex -0.956708 96.000000 2.309695
endloop
endfacet
facet normal 0.000000 1.000000 0.000000
outer loop
vertex -0.956708 96.000000 2.309695
vertex 0.000000 96.000000 2.499996
vertex 0.956708 96.000000 2.309695
endloop
endfacet
facet normal 0.000000 1.000000 0.000042
outer loop
vertex 0.956708 96.000000 2.309695
vertex 1.767767 96.000000 1.767763
vertex 2.309699 96.000000 0.956704
endloop
endfacet
facet normal 0.000000 1.000000 0.000000
outer loop
vertex 2.309699 96.000000 0.956704
vertex 2.500000 96.000000 -0.000004
vertex 2.309699 96.000000 -0.956713
endloop
endfacet
facet normal 0.000000 1.000000 -0.000042
outer loop
vertex 2.309699 96.000000 -0.956713
vertex 1.767767 96.000000 -1.767771
vertex 0.956708 96.000000 -2.309703
endloop
endfacet
facet normal 0.000000 1.000000 0.000000
outer loop
vertex 0.956708 96.000000 -2.309703
vertex -0.956708 96.000000 -2.309703
vertex -2.309699 96.000000 -0.956713
endloop
endfacet
facet normal 0.000000 1.000000 0.000000
outer loop
vertex -2.309699 96.000000 -0.956713
vertex -2.309699 96.000000 0.956704
vertex -0.956708 96.000000 2.309695
endloop
endfacet
facet normal 0.000000 1.000000 0.000000
outer loop
vertex -0.956708 96.000000 2.309695
vertex 0.956708 96.000000 2.309695
vertex 2.309699 96.000000 0.956704
endloop
endfacet
facet normal 0.000000 1.000000 0.000000
outer loop
vertex 2.309699 96.000000 0.956704
vertex 2.309699 96.000000 -0.956713
vertex 0.956708 96.000000 -2.309703
endloop
endfacet
facet normal 0.000000 1.000000 0.000000
outer loop
vertex 0.956708 96.000000 -2.309703
vertex -2.309699 96.000000 -0.956713
vertex -0.956708 96.000000 2.309695
endloop
endfacet
facet normal 0.000000 1.000000 0.000000
outer loop
vertex -0.956708 96.000000 2.309695
vertex 2.309699 96.000000 0.956704
vertex 0.956708 96.000000 -2.309703
endloop
endfacet
facet normal -0.290284 -0.000000 -0.956941
outer loop
vertex -0.956708 -0.000000 -2.309699
vertex -0.956708 96.000000 -2.309703
vertex -0.487726 96.000000 -2.451967
endloop
endfacet
facet normal -0.290284 -0.000000 -0.956941
outer loop
vertex -0.956708 -0.000000 -2.309699
vertex -0.487726 96.000000 -2.451967
vertex -0.487726 -0.000000 -2.451963
endloop
endfacet
facet normal -0.098018 -0.000000 -0.995185
outer loop
vertex -0.487726 -0.000000 -2.451963
vertex -0.487726 96.000000 -2.451967
vertex 0.000000 96.000000 -2.500004
endloop
endfacet
facet normal -0.098018 -0.000000 -0.995185
outer loop
vertex -0.487726 -0.000000 -2.451963
vertex 0.000000 96.000000 -2.500004
vertex 0.000000 -0.000000 -2.500000
endloop
endfacet
facet normal 0.000000 -1.000000 0.000000
outer loop
vertex -0.487726 -0.000000 -2.451963
vertex 0.000000 -0.000000 -2.500000
vertex 0.487726 -0.000000 -2.451963
endloop
endfacet
facet normal 0.000000 -1.000000 0.000000
outer loop
vertex 0.487726 -0.000000 -2.451963
vertex 0.956708 -0.000000 -2.309699
vertex 1.388926 -0.000000 -2.078674
endloop
endfacet
facet normal -0.000000 -1.000000 0.000000
outer loop
vertex 1.388926 -0.000000 -2.078674
vertex 1.767767 -0.000000 -1.767767
vertex 2.078674 -0.000000 -1.388926
endloop
endfacet
facet normal -0.000000 -1.000000 0.000000
outer loop
vertex 2.078674 -0.000000 -1.388926
vertex 2.309699 -0.000000 -0.956708
vertex 2.451963 -0.000000 -0.487726
endloop
endfacet
facet normal 0.000000 -1.000000 0.000000
outer loop
vertex 2.451963 -0.000000 -0.487726
vertex 2.500000 0.000000 0.000000
vertex 2.451963 0.000000 0.487726
endloop
endfacet
facet normal 0.000000 -1.000000 0.000000
outer loop
vertex 2.451963 0.000000 0.487726
vertex 2.309699 0.000000 0.956708
vertex 2.078674 0.000000 1.388926
endloop
endfacet
facet normal 0.000000 -1.000000 0.000000
outer loop
vertex 2.078674 0.000000 1.388926
vertex 1.767767 0.000000 1.767767
vertex 1.388926 0.000000 2.078674
endloop
endfacet
facet normal -0.000000 -1.000000 0.000000
outer loop
vertex 1.388926 0.000000 2.078674
vertex 0.956708 0.000000 2.309699
vertex 0.487726 0.000000 2.451963
endloop
endfacet
facet normal 0.000000 -1.000000 0.000000
outer loop
vertex 0.487726 0.000000 2.451963
vertex 0.000000 0.000000 2.500000
vertex -0.487726 0.000000 2.451963
endloop
endfacet
facet normal 0.000000 -1.000000 0.000000
outer loop
vertex -0.487726 0.000000 2.451963
vertex -0.956708 0.000000 2.309699
vertex -1.388926 0.000000 2.078674
endloop
endfacet
facet normal -0.000000 -1.000000 0.000000
outer loop
vertex -1.388926 0.000000 2.078674
vertex -1.767767 0.000000 1.767767
vertex -2.078674 0.000000 1.388926
endloop
endfacet
facet normal -0.000000 -1.000000 0.000000
outer loop
vertex -2.078674 0.000000 1.388926
vertex -2.309699 0.000000 0.956708
vertex -2.451963 0.000000 0.487726
endloop
endfacet
facet normal 0.000000 -1.000000 0.000000
outer loop
vertex -2.451963 0.000000 0.487726
vertex -2.500000 0.000000 0.000000
vertex -2.451963 -0.000000 -0.487726
endloop
endfacet
facet normal 0.000000 -1.000000 0.000000
outer loop
vertex -2.451963 -0.000000 -0.487726
vertex -2.309699 -0.000000 -0.956708
vertex -2.078674 -0.000000 -1.388926
endloop
endfacet
facet normal 0.000000 -1.000000 0.000000
outer loop
vertex -2.078674 -0.000000 -1.388926
vertex -1.767767 -0.000000 -1.767767
vertex -1.388926 -0.000000 -2.078674
endloop
endfacet
facet normal -0.000000 -1.000000 0.000000
outer loop
vertex -1.388926 -0.000000 -2.078674
vertex -0.956708 -0.000000 -2.309699
vertex -0.487726 -0.000000 -2.451963
endloop
endfacet
facet normal 0.000000 -1.000000 0.000000
outer loop
vertex -0.487726 -0.000000 -2.451963
vertex 0.487726 -0.000000 -2.451963
vertex 1.388926 -0.000000 -2.078674
endloop
endfacet
facet normal 0.000000 -1.000000 0.000000
outer loop
vertex 1.388926 -0.000000 -2.078674
vertex 2.078674 -0.000000 -1.388926
vertex 2.451963 -0.000000 -0.487726
endloop
endfacet
facet normal 0.000000 -1.000000 0.000000
outer loop
vertex 2.451963 -0.000000 -0.487726
vertex 2.451963 0.000000 0.487726
vertex 2.078674 0.000000 1.388926
endloop
endfacet
facet normal 0.000000 -1.000000 0.000000
outer loop
vertex 2.078674 0.000000 1.388926
vertex 1.388926 0.000000 2.078674
vertex 0.487726 0.000000 2.451963
endloop
endfacet
facet normal 0.000000 -1.000000 0.000000
outer loop
vertex 0.487726 0.000000 2.451963
vertex -0.487726 0.000000 2.451963
vertex -1.388926 0.000000 2.078674
endloop
endfacet
facet normal 0.000000 -1.000000 0.000000
outer loop
vertex -1.388926 0.000000 2.078674
vertex -2.078674 0.000000 1.388926
vertex -2.451963 0.000000 0.487726
endloop
endfacet
facet normal 0.000000 -1.000000 0.000000
outer loop
vertex -2.451963 0.000000 0.487726
vertex -2.451963 -0.000000 -0.487726
vertex -2.078674 -0.000000 -1.388926
endloop
endfacet
facet normal 0.000000 -1.000000 0.000000
outer loop
vertex -2.078674 -0.000000 -1.388926
vertex -1.388926 -0.000000 -2.078674
vertex -0.487726 -0.000000 -2.451963
endloop
endfacet
facet normal 0.000000 -1.000000 0.000000
outer loop
vertex -0.487726 -0.000000 -2.451963
vertex 1.388926 -0.000000 -2.078674
vertex 2.451963 -0.000000 -0.487726
endloop
endfacet
facet normal -0.000000 -1.000000 0.000000
outer loop
vertex 2.451963 -0.000000 -0.487726
vertex 2.078674 0.000000 1.388926
vertex 0.487726 0.000000 2.451963
endloop
endfacet
facet normal 0.000000 -1.000000 0.000000
outer loop
vertex 0.487726 0.000000 2.451963
vertex -1.388926 0.000000 2.078674
vertex -2.451963 0.000000 0.487726
endloop
endfacet
facet normal -0.000000 -1.000000 0.000000
outer loop
vertex -2.451963 0.000000 0.487726
vertex -2.078674 -0.000000 -1.388926
vertex -0.487726 -0.000000 -2.451963
endloop
endfacet
facet normal 0.000000 -1.000000 0.000000
outer loop
vertex -0.487726 -0.000000 -2.451963
vertex 2.451963 -0.000000 -0.487726
vertex 0.487726 0.000000 2.451963
endloop
endfacet
facet normal 0.000000 -1.000000 0.000000
outer loop
vertex 0.487726 0.000000 2.451963
vertex -2.451963 0.000000 0.487726
vertex -0.487726 -0.000000 -2.451963
endloop
endfacet
endsolid Exported from Blender-3.6.2
